# xmcd
#
# Track frame offsets:
#	150
#	14937
#	27398
#	38413
#	50342
#	62323
#	73077
#	88803
#	102831
#	115352
#
# Disc length: 1668 seconds
#
# Revision: 0
# Processed by: cddbd v1.5.2PL0 Copyright (c) Steve Scherf et al.
# Submitted via: EasyCDDAExtractor 9.1.0.1
#
DISCID=8306820a
DTITLE=Larry Cochran - Heaven's Door
DYEAR=2006
DGENRE=Gospel
TTITLE0=Something For The Pain
TTITLE1=On The Other Cross
TTITLE2=Heaven's Door
TTITLE3=I Never Made My God
TTITLE4=Get Out Of My Way World
TTITLE5=Proud To Be Christian
TTITLE6=Bible And A Guitar
TTITLE7=Sweetest Apple
TTITLE8=Heavenly Destination
TTITLE9=I've Won The Battle
EXTD=
EXTT0=
EXTT1=
EXTT2=
EXTT3=
EXTT4=
EXTT5=
EXTT6=
EXTT7=
EXTT8=
EXTT9=
PLAYORDER=
